<svg xmlns="http://www.w3.org/2000/svg" style="display: none;">
    <symbol id="three" viewBox="0 0 24 24">
        <title>Three.js</title>
        <path d="M0.38 0A0.268 0.268 0 0 0 0.124 0.332L3.018 12.048A0.268 0.268 0 0 0 3.028 12.088L5.918 23.796A0.268 0.268 0 0 0 6.365 23.924L23.802 7.15A0.268 0.268 0 0 0 23.69 6.7L17.906 5.033A0.268 0.268 0 0 0 17.783 5L6.38 1.715A0.268 0.268 0 0 0 6.236 1.675L0.456 0.01A0.268 0.268 0 0 0 0.38 0ZM0.754 0.654L5.71 2.08L1.99 5.664ZM6.61 2.34L11.474 3.74L7.824 7.255ZM6.088 2.46L7.305 7.386L2.428 5.986ZM12.89 3.998L17.768 5.402L14.106 8.932ZM12.37 4.128L13.578 9.028L8.725 7.636ZM19.198 5.662L24.145 7.086L20.43 10.66ZM18.674 5.782L19.889 10.708L15.013 9.31ZM3.766 6.358L8.73 7.782L5.004 11.368ZM8.047 8.15L12.924 9.55L9.264 13.077ZM7.529 8.287L8.765 13.304L3.802 11.872ZM14.321 9.822L19.286 11.247L15.556 14.833ZM13.801 9.949L15.036 14.961L10.078 13.531ZM4.697 12.387L9.57 13.793L5.914 17.316ZM11.768 14.074L16.631 15.477L12.983 18.987ZM11.228 14.114L12.442 19.041L7.567 17.611ZM7.332 18.134L12.369 19.576L8.587 23.214Z"/>
    </symbol>
</svg>



